<svg width="56" height="56" viewBox="0 0 56 56" fill="none" xmlns="http://www.w3.org/2000/svg">
<path fill-rule="evenodd" clip-rule="evenodd" d="M0 48.697L2.48662e-05 0L46.4799 4.66758e-06L55.7839 7.08689V55.7839L9.30401 55.7839L0 48.697ZM1.46228 47.5643L1.4623 1.51868L45.4284 1.51868L54.2293 8.21971V54.2653L10.2631 54.2653L1.46228 47.5643Z" fill="white"/>
<path d="M24.4091 31.3416L22.2885 42.4724C22.1796 43.0914 22.5365 43.698 23.1306 43.9033C23.7985 44.1341 24.5269 43.7799 24.7578 43.1121L27.179 35.8482L26.9807 35.1702L24.4091 31.3416Z" fill="white"/>
<path d="M27.7036 17.7573C29.2934 17.7573 30.5823 16.4685 30.5823 14.8787C30.5823 13.2888 29.2934 12 27.7036 12C26.1138 12 24.825 13.2888 24.825 14.8787C24.825 16.4685 26.1138 17.7573 27.7036 17.7573Z" fill="white"/>
<path d="M36.5732 26.5086V26.5214H36.554C35.2202 25.7537 34.2703 24.4328 33.2788 22.8527C32.7627 21.9659 32.1821 21.1181 31.542 20.3163C31.132 19.8307 30.6498 19.411 30.1122 19.0721C29.8052 18.8827 29.478 18.7283 29.1367 18.6115C28.7751 18.5005 28.4013 18.4339 28.0236 18.4132C27.8468 18.401 27.6695 18.401 27.4927 18.4132C27.3202 18.4179 27.1481 18.4339 26.9777 18.4611C26.6297 18.5094 26.2877 18.5941 25.9574 18.7138C25.3321 18.9511 24.7547 19.2988 24.2526 19.7405C23.8194 20.1266 23.4262 20.5553 23.0787 21.0199C22.7589 21.4485 22.4614 21.8771 22.1991 22.2994C21.1436 23.9722 20.3088 25.5298 19.1573 26.7357C18.6336 27.2127 18.5956 28.0239 19.0726 28.5476C19.5496 29.0714 20.3608 29.1094 20.8845 28.6324C21.6974 27.9616 22.4303 27.1996 23.0691 26.3615C23.6928 25.5586 24.2334 24.743 24.7611 23.9946L24.8251 23.8986V29.2721C24.8233 29.5294 24.8991 29.7814 25.0426 29.995L28.1547 34.6296L30.6368 43.0768C30.8337 43.7555 31.5433 44.146 32.222 43.9491C32.8353 43.7712 33.2235 43.1682 33.1316 42.5363L32.0793 35.1797C32.0725 35.1313 32.0628 35.0832 32.0505 35.0358L30.5824 29.4256V24.308L30.7423 24.5351C31.3219 25.3917 31.9747 26.1966 32.6934 26.9404C33.4887 27.7466 34.4369 28.3861 35.4825 28.8211C36.1329 29.0971 36.884 28.7937 37.1601 28.1433C37.4209 27.5287 37.1653 26.8169 36.5732 26.5086Z" fill="white"/>
</svg>
