<svg width="56" height="56" viewBox="0 0 56 56" fill="none" xmlns="http://www.w3.org/2000/svg">
<path fill-rule="evenodd" clip-rule="evenodd" d="M0 48.697L2.48662e-05 0L46.4799 4.66758e-06L55.7839 7.08689V55.7839L9.30401 55.7839L0 48.697ZM1.46228 47.5643L1.46231 1.51868L45.4284 1.51868L54.2293 8.21971V54.2653L10.2631 54.2653L1.46228 47.5643Z" fill="white"/>
<g clip-path="url(#clip0)">
<path d="M43.5312 18.1155C43.7902 18.1155 44 17.9056 44 17.6467V13.5051C44 13.2462 43.7902 13.0364 43.5312 13.0364L32.6105 13.0363V12.4697C32.6105 12.2109 32.4007 12.001 32.1418 12.001H23.8584C23.5994 12.001 23.3896 12.2109 23.3896 12.4697V13.0364H17.7615C17.5026 13.0364 17.2927 13.2462 17.2927 13.5051C17.2927 13.764 17.5026 13.9739 17.7615 13.9739H23.3896V14.5405C23.3896 14.7994 23.5994 15.0092 23.8584 15.0092H32.1417C32.4006 15.0092 32.6104 14.7994 32.6104 14.5405V13.9738L43.0625 13.9739V17.178H12.9375V13.9739H15.8948C16.1537 13.9739 16.3636 13.764 16.3636 13.5051C16.3636 13.2462 16.1537 13.0364 15.8948 13.0364H12.4688C12.2098 13.0364 12 13.2462 12 13.5051V17.6467C12 17.9056 12.2098 18.1155 12.4688 18.1155H13.0355V24.3757C13.0355 24.3762 13.0354 24.3765 13.0354 24.3769C13.0354 24.3773 13.0355 24.3777 13.0355 24.3781V30.6384H12.4688C12.2098 30.6384 12 30.8482 12 31.1071V43.5321C12 43.791 12.2098 44.0009 12.4688 44.0009H18.6806C18.6808 44.0009 18.681 44.0009 18.6813 44.0009H23.8584H32.1418H37.3188C37.3189 44.0009 37.3191 44.0009 37.3194 44.0009H43.5312C43.7902 44.0009 44 43.791 44 43.5321V31.107C44 30.8482 43.7902 30.6383 43.5312 30.6383H42.9647V18.1155H43.5312ZM24.3271 14.0717V12.9385H31.6729V14.0717H24.3271ZM41.6569 24.8457L40.4251 26.8476L39.1931 24.8457H41.6569ZM39.1931 23.9082L40.425 21.9064L41.6569 23.9082H39.1931ZM41.6569 30.6382H39.1932L40.4251 28.6364L41.6569 30.6382ZM40.9754 27.742L42.0272 26.033V29.4511L40.9754 27.742ZM40.9754 21.0119L42.0272 19.3029V22.721L40.9754 21.0119ZM41.657 18.1155L40.425 20.1175L39.1931 18.1155H41.657ZM38.823 19.303L39.8746 21.0119L38.823 22.7208V19.303ZM38.823 26.0331L39.8746 27.742L38.823 29.451V26.0331ZM16.8069 24.8457L15.5751 26.8476L14.3431 24.8457H16.8069ZM14.3431 23.9082L15.575 21.9064L16.8069 23.9082H14.3431ZM16.8071 30.6384H14.3431L15.5751 28.6364L16.8071 30.6384ZM16.1255 27.742L17.1772 26.0329V29.451L16.1255 27.742ZM16.1254 21.0119L17.1772 19.3029V22.721L16.1254 21.0119ZM16.807 18.1155L15.5751 20.1175L14.3431 18.1155H16.807ZM13.973 19.303L15.0246 21.0119L13.973 22.7208V19.303ZM13.973 26.0332L15.0246 27.742L13.973 29.451V26.0332ZM18.2125 37.3185C18.2125 37.3189 18.2124 37.3193 18.2124 37.3197C18.2124 37.32 18.2125 37.3205 18.2125 37.3209V39.389C18.2125 39.3895 18.2124 39.3899 18.2124 39.3902C18.2124 39.3906 18.2125 39.391 18.2125 39.3914V43.0635H12.9375V31.5759H18.2125V37.3185ZM31.673 43.0635H24.3271V41.9301H31.673V43.0635ZM36.85 43.0635H32.6106V41.4614C32.6106 41.2025 32.4007 40.9926 32.1418 40.9926H23.8583C23.5994 40.9926 23.3896 41.2025 23.3896 41.4614V43.0635H19.15V39.859H36.85V43.0635ZM36.85 38.9215H19.15V37.7885H36.85V38.9215ZM27.5786 36.851L28.0001 36.4295L28.4216 36.851H27.5786ZM37.3188 30.6382C37.0598 30.6383 36.85 30.8482 36.85 31.107V36.851H29.7473L28.4688 35.5725V30.2659L29.3669 29.3679C29.5501 29.1848 29.5501 28.888 29.367 28.705C29.1839 28.5219 28.8871 28.5219 28.7041 28.705L27.6691 29.7399C27.6687 29.7402 27.6684 29.7405 27.6681 29.7409L27.1509 30.258C26.9678 30.4411 26.9677 30.7379 27.1508 30.9209C27.2424 31.0125 27.3623 31.0582 27.4823 31.0582C27.4986 31.0582 27.515 31.0572 27.5312 31.0555V35.5725L26.2528 36.851H19.15V31.1072C19.15 30.8484 18.9402 30.6385 18.6813 30.6385H18.1147V18.1155H20.7124V19.2488H19.7167C19.5924 19.2488 19.4732 19.2982 19.3852 19.3861C19.2973 19.474 19.2479 19.5932 19.2479 19.7176L19.248 21.182C19.248 21.3063 19.2974 21.4255 19.3853 21.5134L21.2502 23.3784L21.2156 23.4129C21.0326 23.596 21.0326 23.8928 21.2156 24.0759C21.3072 24.1674 21.4272 24.2132 21.5471 24.2132C21.6671 24.2132 21.7871 24.1674 21.8786 24.0759L22.2446 23.7099C22.2446 23.7099 22.2446 23.7099 22.2447 23.7098L23.7091 22.2454C23.7091 22.2454 23.7092 22.2453 23.7093 22.2452L24.0751 21.8794C24.2581 21.6963 24.2581 21.3995 24.0751 21.2165C23.8919 21.0334 23.5952 21.0334 23.4121 21.2165L23.3775 21.251L21.6499 19.5234V18.1155H34.3503V19.5233L32.6226 21.251L32.588 21.2164C32.4049 21.0334 32.1081 21.0334 31.9251 21.2164C31.742 21.3995 31.742 21.6963 31.9251 21.8793L34.1216 24.0758C34.2131 24.1673 34.3331 24.2131 34.4531 24.2131C34.573 24.2131 34.693 24.1674 34.7846 24.0758C34.9676 23.8927 34.9676 23.5959 34.7846 23.4129L34.75 23.3783L36.6149 21.5134C36.7028 21.4255 36.7522 21.3062 36.7522 21.1819L36.7523 19.7175C36.7523 19.5932 36.7029 19.474 36.615 19.386C36.5271 19.2982 36.4079 19.2487 36.2835 19.2487H35.2878V18.1155H37.8856V24.3757C37.8856 24.3762 37.8856 24.3765 37.8856 24.3769C37.8856 24.3773 37.8856 24.3777 37.8856 24.3781V30.6382H37.3188ZM20.9869 20.1863L22.7146 21.9139L21.9131 22.7154L20.1855 20.9877L20.1854 20.1863H20.9869ZM35.0131 20.1862H35.8146L35.8146 20.9877L34.0869 22.7154L33.2854 21.9139L35.0131 20.1862ZM43.0625 31.5758V43.0635H37.7875V31.5758H38.3516C38.3523 31.5758 38.3531 31.5759 38.3538 31.5759C38.3546 31.5759 38.3554 31.5758 38.3563 31.5758H42.4941C42.4947 31.5758 42.4952 31.5759 42.4959 31.5759C42.4965 31.5759 42.4971 31.5758 42.4977 31.5758H43.0625Z" fill="white"/>
<path d="M40.4248 32.1904C39.1672 32.1904 38.144 33.2136 38.144 34.4712C38.144 35.7288 39.1672 36.752 40.4248 36.752C41.6824 36.752 42.7055 35.7288 42.7055 34.4712C42.7055 33.2136 41.6824 32.1904 40.4248 32.1904ZM40.4248 35.8145C39.6841 35.8145 39.0815 35.2119 39.0815 34.4712C39.0815 33.7305 39.6842 33.1279 40.4248 33.1279C41.1655 33.1279 41.768 33.7305 41.768 34.4712C41.768 35.2119 41.1654 35.8145 40.4248 35.8145Z" fill="white"/>
<path d="M40.4251 34.9568C40.6931 34.9568 40.9104 34.7395 40.9104 34.4715C40.9104 34.2034 40.6931 33.9861 40.4251 33.9861C40.157 33.9861 39.9397 34.2034 39.9397 34.4715C39.9397 34.7395 40.157 34.9568 40.4251 34.9568Z" fill="white"/>
<path d="M40.4248 37.8853C39.1672 37.8853 38.144 38.9084 38.144 40.166C38.144 41.4236 39.1672 42.4468 40.4248 42.4468C41.6824 42.4468 42.7055 41.4236 42.7055 40.166C42.7055 38.9084 41.6824 37.8853 40.4248 37.8853ZM40.4248 41.5093C39.6841 41.5093 39.0815 40.9067 39.0815 40.166C39.0815 39.4253 39.6842 38.8228 40.4248 38.8228C41.1655 38.8228 41.768 39.4253 41.768 40.166C41.768 40.9067 41.1654 41.5093 40.4248 41.5093Z" fill="white"/>
<path d="M40.4251 40.6517C40.6931 40.6517 40.9104 40.4343 40.9104 40.1663C40.9104 39.8982 40.6931 39.6809 40.4251 39.6809C40.157 39.6809 39.9397 39.8982 39.9397 40.1663C39.9397 40.4343 40.157 40.6517 40.4251 40.6517Z" fill="white"/>
<path d="M15.5749 32.1904C14.3173 32.1904 13.2942 33.2136 13.2942 34.4712C13.2942 35.7288 14.3173 36.752 15.5749 36.752C16.8326 36.752 17.8558 35.7288 17.8558 34.4712C17.8558 33.2136 16.8326 32.1904 15.5749 32.1904ZM15.5749 35.8145C14.8343 35.8145 14.2317 35.2119 14.2317 34.4712C14.2317 33.7305 14.8343 33.1279 15.5749 33.1279C16.3157 33.1279 16.9183 33.7305 16.9183 34.4712C16.9183 35.2119 16.3157 35.8145 15.5749 35.8145Z" fill="white"/>
<path d="M15.575 34.9568C15.843 34.9568 16.0603 34.7395 16.0603 34.4715C16.0603 34.2034 15.843 33.9861 15.575 33.9861C15.3069 33.9861 15.0896 34.2034 15.0896 34.4715C15.0896 34.7395 15.3069 34.9568 15.575 34.9568Z" fill="white"/>
<path d="M15.5749 37.8853C14.3173 37.8853 13.2942 38.9084 13.2942 40.166C13.2942 41.4236 14.3173 42.4468 15.5749 42.4468C16.8326 42.4468 17.8558 41.4236 17.8558 40.166C17.8558 38.9084 16.8326 37.8853 15.5749 37.8853ZM15.5749 41.5093C14.8343 41.5093 14.2317 40.9067 14.2317 40.166C14.2317 39.4253 14.8343 38.8228 15.5749 38.8228C16.3157 38.8228 16.9183 39.4253 16.9183 40.166C16.9183 40.9067 16.3157 41.5093 15.5749 41.5093Z" fill="white"/>
<path d="M15.575 40.6517C15.843 40.6517 16.0603 40.4343 16.0603 40.1663C16.0603 39.8982 15.843 39.6809 15.575 39.6809C15.3069 39.6809 15.0896 39.8982 15.0896 40.1663C15.0896 40.4343 15.3069 40.6517 15.575 40.6517Z" fill="white"/>
</g>
<defs>
<clipPath id="clip0">
<rect width="32" height="32" fill="white" transform="translate(12 12)"/>
</clipPath>
</defs>
</svg>
