<svg width="56" height="56" viewBox="0 0 56 56" fill="none" xmlns="http://www.w3.org/2000/svg">
<path fill-rule="evenodd" clip-rule="evenodd" d="M0 48.697L2.48662e-05 0L46.4799 4.66758e-06L55.7839 7.08689V55.7839L9.30401 55.7839L0 48.697ZM1.46228 47.5643L1.4623 1.51868L45.4284 1.51868L54.2293 8.21971V54.2653L10.2631 54.2653L1.46228 47.5643Z" fill="white"/>
<g clip-path="url(#clip0)">
<path d="M42.6704 25.9403C42.5076 25.8447 42.3064 25.8422 42.1413 25.9339L40.6736 26.7493L40.2666 12.5184C40.2586 12.2297 40.0221 11.9999 39.7333 12H36C35.7112 11.9999 35.4747 12.2297 35.4666 12.5184L34.9696 29.92L33.3333 30.8267V26.4C33.3332 26.1055 33.0942 25.8668 32.7997 25.8669C32.7093 25.867 32.6204 25.89 32.5413 25.9339L23.7333 30.8267V26.4C23.7332 26.1055 23.4943 25.8668 23.1997 25.8669C23.1093 25.867 23.0204 25.89 22.9413 25.9339L13.3413 31.2672C13.1719 31.3611 13.0667 31.5396 13.0667 31.7333V43.4667C13.0667 43.7612 13.3055 44 13.6 44H42.4C42.6945 44 42.9333 43.7612 42.9333 43.4667V26.4C42.9333 26.211 42.8333 26.0361 42.6704 25.9403ZM36.5184 13.0667H39.2149L39.2458 14.1333H36.488L36.5184 13.0667ZM36.457 15.2H39.2762L39.6229 27.3328L36.0533 29.3152L36.457 15.2ZM27.4667 42.9333H24.2666V40.2667H27.4667V42.9333ZM31.7333 42.9333H28.5333V40.2667H31.7333V42.9333ZM41.8666 42.9333H32.8V39.7333C32.8 39.4388 32.5612 39.2 32.2666 39.2H23.7333C23.4388 39.2 23.2 39.4388 23.2 39.7333V42.9333H14.1333V32.0475L22.6666 27.3067V31.7333C22.6668 32.0279 22.9057 32.2665 23.2002 32.2664C23.2906 32.2663 23.3796 32.2433 23.4586 32.1995L32.2666 27.3067V31.7333C32.2668 32.0279 32.5057 32.2665 32.8002 32.2664C32.8906 32.2663 32.9796 32.2433 33.0586 32.1995L38.0885 29.4053L40.4266 28.1067L41.8666 27.3067V42.9333Z" fill="white"/>
<path d="M20.5334 33.3333H16.2667C15.9722 33.3333 15.7334 33.5721 15.7334 33.8666V35.9999C15.7334 36.2945 15.9722 36.5333 16.2667 36.5333H20.5334C20.8279 36.5333 21.0667 36.2945 21.0667 35.9999V33.8666C21.0667 33.5721 20.8279 33.3333 20.5334 33.3333ZM20.0001 35.4666H16.8001V34.3999H20.0001V35.4666Z" fill="white"/>
<path d="M30.1333 33.3333H25.8666C25.5721 33.3333 25.3333 33.5721 25.3333 33.8666V35.9999C25.3333 36.2945 25.5721 36.5333 25.8666 36.5333H30.1333C30.4278 36.5333 30.6666 36.2945 30.6666 35.9999V33.8666C30.6666 33.5721 30.4278 33.3333 30.1333 33.3333ZM29.5999 35.4666H26.3999V34.3999H29.5999V35.4666Z" fill="white"/>
<path d="M39.7334 33.3333H35.4667C35.1721 33.3333 34.9333 33.5721 34.9333 33.8666V35.9999C34.9333 36.2945 35.1721 36.5333 35.4667 36.5333H39.7334C40.0279 36.5333 40.2667 36.2945 40.2667 35.9999V33.8666C40.2667 33.5721 40.0279 33.3333 39.7334 33.3333ZM39.2 35.4666H36V34.3999H39.2V35.4666Z" fill="white"/>
</g>
<defs>
<clipPath id="clip0">
<rect width="32" height="32" fill="white" transform="translate(12 12)"/>
</clipPath>
</defs>
</svg>
