<svg width="56" height="56" viewBox="0 0 56 56" fill="none" xmlns="http://www.w3.org/2000/svg">
<path fill-rule="evenodd" clip-rule="evenodd" d="M0 48.697L2.48662e-05 0L46.4799 4.66758e-06L55.7839 7.08689V55.7839L9.30401 55.7839L0 48.697ZM1.46228 47.5643L1.4623 1.51868L45.4284 1.51868L54.2293 8.21971V54.2653L10.2631 54.2653L1.46228 47.5643Z" fill="white"/>
<path d="M43.7366 21.14L28.2699 12.0733C28.1072 11.9784 27.9072 11.9752 27.7425 12.0664L12.2758 20.5998C12.1056 20.6931 12 20.8723 12 21.0664V43.4664C12 43.7614 12.2389 43.9998 12.5333 43.9998H15.2C15.4944 43.9998 15.7333 43.7614 15.7333 43.4664V24.7998H40.2667V43.4665C40.2667 43.7614 40.5051 43.9998 40.8 43.9998H43.4667C43.7616 43.9998 44 43.7614 44 43.4665V21.5998C44.0001 21.4104 43.8998 21.2355 43.7366 21.14ZM42.9334 42.9331H41.3334V24.2664C41.3334 23.972 41.095 23.7331 40.8001 23.7331H15.2C14.9056 23.7331 14.6667 23.972 14.6667 24.2664V42.9331H13.0667V21.3811L27.992 13.1464L42.9334 21.9053V42.9331Z" fill="white"/>
<path d="M38.6667 36.5332H32.2667C31.9718 36.5332 31.7334 36.7716 31.7334 37.0665V43.4665C31.7334 43.7615 31.9718 43.9998 32.2667 43.9998H38.6667C38.9617 43.9998 39.2 43.7615 39.2 43.4665V37.0665C39.2 36.7716 38.9617 36.5332 38.6667 36.5332ZM38.1333 42.9332H32.8V37.5999H38.1333V42.9332V42.9332Z" fill="white"/>
<path d="M36.0001 37.0664V38.6664H34.9334V37.0664H33.8667V39.1997C33.8667 39.4947 34.1051 39.733 34.4 39.733H36.5333C36.8283 39.733 37.0666 39.4947 37.0666 39.1997V37.0664H36.0001Z" fill="white"/>
<path d="M32.2668 36.5332H25.8668C25.5724 36.5332 25.3335 36.7716 25.3335 37.0665V43.4665C25.3335 43.7615 25.5724 43.9998 25.8668 43.9998H32.2668C32.5618 43.9998 32.8001 43.7615 32.8001 43.4665V37.0665C32.8001 36.7716 32.5618 36.5332 32.2668 36.5332ZM31.7334 42.9332H26.4001V37.5999H31.7334V42.9332Z" fill="white"/>
<path d="M29.5999 37.0664V38.6664H28.5332V37.0664H27.4666V39.1997C27.4666 39.4947 27.7055 39.733 27.9999 39.733H30.1332C30.4281 39.733 30.6665 39.4947 30.6665 39.1997V37.0664H29.5999Z" fill="white"/>
<path d="M38.6667 30.1331H32.2667C31.9718 30.1331 31.7334 30.3714 31.7334 30.6664V37.0664C31.7334 37.3613 31.9718 37.5997 32.2667 37.5997H38.6667C38.9617 37.5997 39.2 37.3613 39.2 37.0664V30.6664C39.2 30.3714 38.9617 30.1331 38.6667 30.1331ZM38.1333 36.5331H32.8V31.1997H38.1333V36.5331V36.5331Z" fill="white"/>
<path d="M36.0001 30.6665V32.2665H34.9334V30.6665H33.8667V32.7998C33.8667 33.0948 34.1051 33.3331 34.4 33.3331H36.5333C36.8283 33.3331 37.0666 33.0948 37.0666 32.7998V30.6665H36.0001Z" fill="white"/>
<path d="M40.8 27.9998H15.2V29.0664H40.8V27.9998Z" fill="white"/>
<path d="M40.8 25.8665H15.2V26.9331H40.8V25.8665Z" fill="white"/>
<path d="M30.6667 19.4663H25.3334C25.039 19.4663 24.8 19.7052 24.8 19.9996V22.1329C24.8 22.4273 25.039 22.6663 25.3334 22.6663H30.6667C30.9616 22.6663 31.2 22.4273 31.2 22.1329V19.9996C31.2 19.7052 30.9616 19.4663 30.6667 19.4663ZM30.1333 21.5997H25.8666V20.533H30.1333V21.5997Z" fill="white"/>
</svg>
