<svg width="56" height="56" viewBox="0 0 56 56" fill="none" xmlns="http://www.w3.org/2000/svg">
<path fill-rule="evenodd" clip-rule="evenodd" d="M0 48.697L2.48662e-05 0L46.4799 4.66758e-06L55.7839 7.08689V55.7839L9.30401 55.7839L0 48.697ZM1.46228 47.5643L1.4623 1.51868L45.4284 1.51868L54.2293 8.21971V54.2653L10.2631 54.2653L1.46228 47.5643Z" fill="white"/>
<path d="M35.4375 26.5V24.4375H37.4375V19.5H35.4375V17.5H32.5V19.5H23.4375V17.5H20.5V19.5H18.5V24.4375H20.5V29.4375H23.4375V27.4375H32.5V29.4375H35.4375V27.4375H44V26.5H35.4375ZM36.5 20.4375V20.8059L36.1316 20.4375H36.5ZM33.4375 18.4375H34.5V19.5H33.4375V18.4375ZM30.8059 20.4375L33.8684 23.5H31.1941L28.1316 20.4375H30.8059ZM26.8059 20.4375L29.8684 23.5H27.1941L24.1316 20.4375H26.8059ZM21.4375 18.4375H22.5V19.5H21.4375V18.4375ZM19.4375 23.5V21.0691L21.8684 23.5H19.4375ZM22.5 28.5H21.4375V24.4375H22.5V28.5ZM23.1941 23.5L20.1316 20.4375H22.8059L25.8684 23.5H23.1941ZM34.5 28.5H33.4375V25.4375H32.5V26.5H23.4375V24.4375H34.5V28.5ZM35.1941 23.5L32.1316 20.4375H34.8059L36.5 22.1316V23.5H35.1941Z" fill="white"/>
<path d="M12 26.5H19.5V27.4375H12V26.5Z" fill="white"/>
<path d="M12 34.5H44V35.4375H12V34.5Z" fill="white"/>
<path d="M12 37.5H44V38.4375H12V37.5Z" fill="white"/>
<path d="M24 30.5H32V31.4375H24V30.5Z" fill="white"/>
<path d="M36 30.5H44V31.4375H36V30.5Z" fill="white"/>
<path d="M12 30.5H20V31.4375H12V30.5Z" fill="white"/>
<path d="M13 36H17V36.9375H13V36Z" fill="white"/>
<path d="M18 36H19V36.9375H18V36Z" fill="white"/>
<path d="M29 36H30V36.9375H29V36Z" fill="white"/>
<path d="M31 36H32V36.9375H31V36Z" fill="white"/>
<path d="M35 36H41V36.9375H35V36Z" fill="white"/>
</svg>
