<svg width="56" height="56" viewBox="0 0 56 56" fill="none" xmlns="http://www.w3.org/2000/svg">
<path fill-rule="evenodd" clip-rule="evenodd" d="M0 48.697L2.48662e-05 0L46.4799 4.66758e-06L55.7839 7.08689V55.7839L9.30401 55.7839L0 48.697ZM1.46228 47.5643L1.4623 1.51868L45.4284 1.51868L54.2293 8.21971V54.2653L10.2631 54.2653L1.46228 47.5643Z" fill="white"/>
<path d="M41.6629 28.1658V23.7013L33.0427 21.3308L30.3825 23.238C30.3138 23.1694 30.2418 23.1041 30.1673 23.0416V12H25.7028L23.3323 20.6202L25.3901 23.4904C25.2956 23.6056 25.2088 23.7274 25.13 23.8547L14.3372 23.8697L14.3434 28.3342L22.9669 30.6928L25.1802 29.1013L24.6919 42.125H18.7255V44H37.1933V42.125H31.3024L30.7792 28.1658H41.6629ZM26.5007 25.6267C26.5007 24.7996 27.1735 24.1267 28.0007 24.1267C28.8277 24.1267 29.5007 24.7996 29.5007 25.6267C29.5007 26.4539 28.8277 27.1267 28.0007 27.1267C27.1736 27.1267 26.5007 26.4539 26.5007 25.6267ZM33.4082 23.3759L39.7879 25.1303V26.2908H31.3097C31.3528 26.076 31.3757 25.854 31.3757 25.6267C31.3757 25.3743 31.3469 25.1284 31.294 24.8916L33.4082 23.3759ZM27.1318 13.875H28.2924V22.2652C28.1962 22.2569 28.099 22.2517 28.0007 22.2517C27.6279 22.2517 27.2694 22.3134 26.9338 22.4256L25.3775 20.2548L27.1318 13.875ZM22.5985 28.6481L16.2163 26.9025L16.2148 25.742L24.6283 25.7304C24.6418 26.1753 24.7417 26.5988 24.9119 26.9846L22.5985 28.6481ZM26.5682 42.125L27.065 28.8688C27.3623 28.9548 27.676 29.0018 28.0007 29.0018C28.3228 29.0018 28.6341 28.9554 28.9293 28.8708L29.4262 42.125H26.5682Z" fill="white"/>
</svg>
