<svg width="56" height="56" viewBox="0 0 56 56" fill="none" xmlns="http://www.w3.org/2000/svg">
<path fill-rule="evenodd" clip-rule="evenodd" d="M0 48.697L2.48662e-05 0L46.4799 4.66758e-06L55.7839 7.08689V55.7839L9.30401 55.7839L0 48.697ZM1.46228 47.5643L1.4623 1.51868L45.4284 1.51868L54.2293 8.21971V54.2653L10.2631 54.2653L1.46228 47.5643Z" fill="white"/>
<path d="M46.4173 15.3794H44.286L45.6802 13.9851H46.4173C46.674 13.9851 46.882 13.7771 46.882 13.5204C46.882 13.2638 46.674 13.0557 46.4173 13.0557H18.9977C18.741 13.0557 18.533 13.2638 18.533 13.5204C18.533 13.7771 18.741 13.9851 18.9977 13.9851H21.129L19.7348 15.3794H18.9977C18.741 15.3794 18.533 15.5875 18.533 15.8441C18.533 16.1008 18.741 16.3088 18.9977 16.3088H20.411L20.3919 18.0828L19.5461 18.9695C18.7749 19.7785 18.8044 21.0592 19.6121 21.8318L21.5082 23.6443C21.5947 23.7271 21.7097 23.7734 21.8294 23.7735H21.84C21.8956 23.7709 21.9504 23.7586 22.0018 23.7372L27.1822 31.1805L24.5983 38.9324C24.5172 39.1762 24.6491 39.4396 24.8929 39.5207C25.1367 39.6018 25.4002 39.4699 25.4813 39.2261L27.8454 32.1328L29.3061 34.2325C29.4526 34.4432 29.7423 34.4952 29.953 34.3487C30.1637 34.2021 30.2157 33.9124 30.0692 33.7017L28.2102 31.0327L31.0558 22.4955C31.0701 22.4485 31.0767 22.3996 31.0753 22.3505H33.8735C33.872 22.4041 33.8801 22.4576 33.8972 22.5085L35.9184 28.1067L33.9535 30.9142C33.8 31.12 33.8425 31.4112 34.0483 31.5646C34.254 31.7179 34.5453 31.6755 34.6986 31.4698C34.7042 31.4623 34.7095 31.4546 34.7147 31.4468L36.3046 29.1756L39.9388 39.2391C40.0054 39.4231 40.18 39.5458 40.3757 39.5458C40.4296 39.5459 40.4831 39.5365 40.5337 39.518C40.7749 39.4306 40.8997 39.1643 40.8126 38.9231L36.9552 28.2443L41.0793 22.3533L44.036 23.3641L40.8525 36.1807C40.7906 36.4298 40.9423 36.6819 41.1914 36.7438L41.1918 36.7439C41.2289 36.7528 41.267 36.7573 41.3052 36.7574C41.5186 36.7573 41.7046 36.6118 41.756 36.4047L44.9218 23.6573C44.9535 23.6661 44.9861 23.6715 45.0189 23.6736C45.2176 23.6735 45.3944 23.5471 45.4586 23.3589L46.3076 20.8777C46.6691 19.8198 46.1049 18.6693 45.0473 18.3072L45.0231 18.2984V16.3088H46.4173C46.674 16.3088 46.882 16.1008 46.882 15.8441C46.882 15.5875 46.674 15.3794 46.4173 15.3794ZM44.3659 13.9851L43.1641 15.187L41.9623 13.9851H44.3659ZM42.0423 15.3794H39.6386L40.8404 14.1775L42.0423 15.3794ZM39.7186 13.9851L38.5167 15.187L37.3149 13.9851H39.7186ZM37.3949 15.3794H34.9912L36.193 14.1775L37.3949 15.3794ZM35.0712 13.9851L33.8694 15.187L32.6675 13.9851H35.0712ZM32.7475 15.3794H30.3438L31.5457 14.1775L32.7475 15.3794ZM30.4238 13.9851L29.222 15.187L28.0201 13.9851H30.4238ZM28.1001 15.3794H25.6964L26.8983 14.1775L28.1001 15.3794ZM25.7764 13.9851L24.5746 15.187L23.3728 13.9851H25.7764ZM22.2509 14.1775L23.4527 15.3794H21.0491L22.2509 14.1775ZM21.8145 22.6502L20.2525 21.1598C19.8153 20.7418 19.7993 20.0486 20.2167 19.6108L21.2749 18.5066C21.4746 18.2962 21.7499 18.1743 22.0399 18.1678H22.065C22.3468 18.1672 22.6179 18.276 22.8211 18.4713L24.3812 19.9608L21.8145 22.6502ZM27.5489 30.0823L22.6826 23.0866L24.6117 21.0664L29.4371 24.1369C29.4631 24.1515 29.4903 24.1638 29.5185 24.1736L27.5489 30.0823ZM30.1277 22.3458L29.8173 23.2753L25.2666 20.3795L25.3753 20.2656C25.5526 20.08 25.5457 19.7858 25.36 19.6086L23.4638 17.796C23.0778 17.4215 22.556 17.2201 22.0185 17.2383C21.7823 17.2455 21.5492 17.2941 21.3298 17.3819L21.3409 16.3088H32.0104V17.2383H31.7116C30.5939 17.2398 29.6882 18.1456 29.6867 19.2632V21.8857C29.6875 22.1322 29.8815 22.3347 30.1277 22.3458ZM34.3341 21.421H30.6162V19.2632C30.6172 18.6586 31.107 18.1688 31.7116 18.1678H33.2387C33.8433 18.1688 34.333 18.6586 34.3341 19.2632V21.421ZM41.031 19.0731L40.1824 21.5548C40.1424 21.6715 40.1504 21.7992 40.2047 21.9099C40.2116 21.9234 40.2237 21.9322 40.2316 21.9452L36.5704 27.1754L34.8263 22.3449C35.0708 22.332 35.2627 22.1305 35.2636 21.8857V19.2632C35.2621 18.1455 34.3563 17.2398 33.2387 17.2383H32.9399V16.3088H44.0936V17.9819L43.6024 17.8137C42.5446 17.4534 41.3948 18.0166 41.031 19.0731ZM45.4307 20.5775L44.7336 22.6186L41.2122 21.4154L41.9093 19.3761C42.1042 18.8029 42.7268 18.496 43.3001 18.6909C43.3013 18.6913 43.3025 18.6916 43.3036 18.692L44.7489 19.186C45.3211 19.3823 45.6262 20.005 45.4307 20.5775Z" fill="white"/>
<g clip-path="url(#clip0)">
<path d="M17.9153 25.6555C18.643 25.6555 19.2327 25.0665 19.2327 24.3392C19.2327 23.612 18.643 23.0229 17.9153 23.0229C17.1883 23.0229 16.5994 23.612 16.5994 24.3392C16.5993 25.0665 17.1883 25.6555 17.9153 25.6555Z" fill="white"/>
<path d="M14.5945 25.1032C14.6223 25.1945 14.6737 25.277 14.7419 25.3434L16.319 26.8644V28.4869C16.4561 28.4785 16.5962 28.4895 16.7334 28.5317C16.7862 28.5478 16.8338 28.572 16.8822 28.5944C17.0311 28.3677 17.2395 28.1909 17.5029 28.1106C18.0948 27.928 18.7733 28.279 18.9574 28.8834C19.3637 30.207 19.2303 29.7713 19.5508 30.8177L19.7409 31.0014C19.7306 30.9186 19.716 30.8375 19.716 30.752C19.716 30.7212 19.724 30.6922 19.7248 30.6618L19.5113 30.2789V26.8648L21.0884 25.3434C21.1573 25.2771 21.208 25.1945 21.2358 25.1032L21.8233 23.188C21.9143 22.8909 21.747 22.5758 21.45 22.4845C21.1499 22.3921 20.8382 22.5612 20.7465 22.8579L20.2015 24.6341L18.8797 25.909H16.9513L15.6288 24.6337L15.0837 22.8578C14.9921 22.5611 14.681 22.3924 14.3803 22.4845C14.0832 22.5758 13.916 22.8908 14.007 23.1879L14.5945 25.1032Z" fill="white"/>
<path d="M17.1994 31.0942L16.9089 32.0398L17.2837 31.3689L17.1994 31.0942Z" fill="white"/>
<path d="M14.9451 38.8682H19.3902V36.2239H14.9443L14.9451 38.8682Z" fill="white"/>
<path d="M16.5486 32.6981L15.3926 33.8131L15.653 35.33C15.7095 35.6594 15.9955 35.8916 16.3183 35.8916C16.3564 35.8916 16.3945 35.8886 16.4333 35.882C16.8009 35.8189 17.0481 35.4694 16.985 35.1019L16.5683 32.6736C16.5611 32.6809 16.5566 32.6908 16.5486 32.6981Z" fill="white"/>
<path d="M12.5825 32.6442C13.4312 32.6442 14.0656 31.9298 14.0656 31.1603C14.0656 30.3406 13.4018 29.6768 12.5825 29.6768C11.7632 29.6768 11.0994 30.3406 11.0994 31.1603C11.0994 31.9895 11.7844 32.6442 12.5825 32.6442Z" fill="white"/>
<path d="M14.381 34.006L16.1592 32.2914C16.2369 32.2169 16.2941 32.1238 16.3257 32.0211L16.9052 30.1342L16.7307 29.566C16.6866 29.4234 16.6727 29.277 16.6838 29.1329C16.6456 29.1116 16.6118 29.0838 16.5678 29.0702C16.2303 28.9671 15.8775 29.1556 15.7749 29.4905L15.1609 31.4919L13.6703 32.9292H11.4477C11.2196 32.9292 10.8162 33.1016 10.7062 33.4027L8.94127 38.182C8.81952 38.5106 8.98752 38.8755 9.31614 38.9969C9.64772 39.1191 10.01 38.9489 10.131 38.6214L10.7845 36.8513C10.7845 37.2294 10.7824 38.3034 10.7824 44.1286C10.7824 44.5493 11.1234 44.89 11.5438 44.89C11.964 44.89 12.3052 44.5493 12.3052 44.1286V39.5911H12.8597V44.1286C12.8597 44.5493 13.2007 44.89 13.621 44.89C14.0414 44.89 14.3824 44.5493 14.3824 44.1286C14.3826 36.8271 14.381 41.309 14.381 34.006Z" fill="white"/>
<path d="M28.929 36.2239L28.9297 38.8682H31.4354V36.2239H28.929Z" fill="white"/>
<path d="M18.8454 35.0557C18.783 35.4209 19.0273 35.7672 19.3904 35.8333L19.3911 33.8996L19.0926 33.6121L18.8454 35.0557Z" fill="white"/>
<path d="M30.0418 33.1584L31.2273 30.3278C31.3571 30.0171 31.2111 29.6602 30.9008 29.5304C30.5913 29.3998 30.2333 29.5465 30.1035 29.8568L29.0458 32.3823C29.0435 32.3838 27.6858 33.4008 27.6784 33.4067C27.6168 33.4067 26.1263 33.4162 25.6473 33.421C25.2923 33.4258 25.0179 33.4104 24.8529 33.7712L24.1179 35.381L24.1187 38.3154L24.9116 36.5788C24.9116 37.8981 24.9094 40.0993 24.9094 44.159C24.9094 44.5628 25.2373 44.89 25.6407 44.89C26.0442 44.89 26.372 44.5628 26.372 44.159V39.8027H26.9054V44.159C26.9054 44.5628 27.2332 44.89 27.6366 44.89C28.0401 44.89 28.3679 44.5628 28.3679 44.159C28.3679 37.4092 28.365 39.0768 28.365 34.4146L30.0418 33.1584Z" fill="white"/>
<path d="M25.7917 32.2853L25.5049 32.5623C25.7646 32.9067 26.1738 33.1325 26.6382 33.1325C27.4253 33.1325 28.0627 32.4947 28.0627 31.7084C28.0627 30.921 27.4253 30.2839 26.6382 30.2839C26.6103 30.2839 26.5839 30.2905 26.556 30.2924L26.0969 31.7884C26.0382 31.9784 25.9325 32.1497 25.7917 32.2853Z" fill="white"/>
<path d="M20.2273 30.752C20.2273 31.6246 20.9601 32.2796 21.7545 32.2796C22.5482 32.2796 23.2817 31.6257 23.2817 30.752C23.2817 29.9077 22.5988 29.2241 21.7545 29.2241C20.9102 29.2241 20.2273 29.9077 20.2273 30.752Z" fill="white"/>
<path d="M23.6067 33.6822L25.4369 31.917C25.5169 31.8403 25.5756 31.7442 25.6085 31.6382L26.29 29.4157C26.3956 29.0709 26.2012 28.7052 25.8565 28.5996C25.5095 28.4907 25.1464 28.688 25.0401 29.0327L24.4084 31.0936L22.874 32.5738H20.6345L19.0999 31.0936L18.4684 29.0327C18.362 28.688 17.9967 28.4906 17.652 28.5996C17.3072 28.7052 17.1128 29.0709 17.2185 29.4157L17.8999 31.6382C17.9329 31.7442 17.9916 31.8403 18.0716 31.917L19.9024 33.683C19.9024 40.478 19.9002 35.0887 19.9002 44.1063C19.9002 44.5394 20.2516 44.8904 20.6843 44.8904C21.1171 44.8904 21.4685 44.5394 21.4685 44.1063V39.4334H22.0407V44.1063C22.0407 44.5394 22.392 44.8904 22.8248 44.8904C23.2575 44.8904 23.6089 44.5394 23.6089 44.1063C23.609 36.5936 23.6067 41.1935 23.6067 33.6822Z" fill="white"/>
</g>
<defs>
<clipPath id="clip0">
<rect width="22.5339" height="22.5339" fill="white" transform="translate(8.90161 22.4077)"/>
</clipPath>
</defs>
</svg>
