<svg width="56" height="56" viewBox="0 0 56 56" fill="none" xmlns="http://www.w3.org/2000/svg">
<path fill-rule="evenodd" clip-rule="evenodd" d="M0 48.697L2.48662e-05 0L46.4799 4.66758e-06L55.7839 7.08689V55.7839L9.30401 55.7839L0 48.697ZM1.46228 47.5643L1.4623 1.51868L45.4284 1.51868L54.2293 8.21971V54.2653L10.2631 54.2653L1.46228 47.5643Z" fill="white"/>
<path d="M37.5934 18.4064C35.1219 15.9674 31.7398 14.439 27.9999 14.439C24.2601 14.439 20.878 15.9674 18.4064 18.4064C15.9349 20.8455 14.439 24.2601 14.439 27.9999C14.439 31.7398 15.9674 35.1219 18.4064 37.5934C20.8455 40.0325 24.2601 41.5609 27.9999 41.5609C31.7398 41.5609 35.1219 40.0325 37.5934 37.5934C40.0325 35.1544 41.5609 31.7398 41.5609 27.9999C41.5609 24.2601 40.0325 20.878 37.5934 18.4064ZM36.6503 36.6503C34.439 38.8617 31.3821 40.2276 27.9999 40.2276C24.6178 40.2276 21.5609 38.8617 19.3495 36.6503C17.1382 34.439 15.7723 31.3821 15.7723 27.9999C15.7723 24.6178 17.1382 21.5609 19.3495 19.3495C21.5609 17.1382 24.6178 15.7723 27.9999 15.7723C31.3821 15.7723 34.439 17.1382 36.6503 19.3495C38.8617 21.5609 40.2276 24.6178 40.2276 27.9999C40.2601 31.3821 38.8943 34.439 36.6503 36.6503Z" fill="white"/>
<path d="M39.3171 16.6829C36.4228 13.7886 32.4228 12 28 12C23.5772 12 19.5772 13.7886 16.6829 16.6829C13.7886 19.5772 12 23.5772 12 28C12 32.4228 13.7886 36.4228 16.6829 39.3171C19.5772 42.2114 23.5772 44 28 44C32.4228 44 36.4228 42.2114 39.3171 39.3171C42.2114 36.4228 44 32.4228 44 28C44 23.5772 42.2114 19.5772 39.3171 16.6829ZM38.4065 38.4065C35.7398 41.0732 32.065 42.6992 28 42.6992C23.935 42.6992 20.2602 41.0406 17.5935 38.4065C14.9268 35.7398 13.3008 32.065 13.3008 28C13.3008 23.935 14.9593 20.2602 17.5935 17.5935C20.2602 14.9268 23.935 13.3008 28 13.3008C32.065 13.3008 35.7398 14.9593 38.4065 17.5935C41.0732 20.2602 42.6992 23.935 42.6992 28C42.6992 32.065 41.0406 35.7398 38.4065 38.4065Z" fill="white"/>
<path d="M34.8294 20.8779C34.6343 20.7153 34.4066 20.5852 34.1465 20.5852H30.179C29.9188 20.5852 29.6587 20.6828 29.4961 20.8779C29.3335 21.0405 29.2034 21.3007 29.2034 21.5608V25.073H26.7969V21.5608C26.7969 21.3007 26.6993 21.0405 26.5042 20.8779C26.3416 20.7153 26.0814 20.5852 25.8213 20.5852H21.8538C21.5936 20.5852 21.3335 20.6828 21.1709 20.8779C21.0083 21.0405 20.8782 21.3007 20.8782 21.5608V34.4389C20.8782 34.699 20.9757 34.9592 21.1709 35.1218C21.3335 35.2844 21.5936 35.4145 21.8538 35.4145H25.8213C26.0814 35.4145 26.3416 35.3169 26.5042 35.1218C26.6668 34.9592 26.7969 34.699 26.7969 34.4389V30.6665H29.2034V34.4389C29.2034 34.699 29.3009 34.9592 29.4961 35.1218C29.6587 35.2844 29.9188 35.4145 30.179 35.4145H34.179C34.4391 35.4145 34.6993 35.3169 34.8619 35.1218C35.0245 34.9592 35.1546 34.699 35.1546 34.4389V21.5608C35.1221 21.3007 35.0245 21.073 34.8294 20.8779ZM33.8538 34.1137H33.8213H30.5042V30.0161C30.5042 29.6584 30.2115 29.3657 29.8538 29.3657H26.1465C25.7887 29.3657 25.4961 29.6584 25.4961 30.0161V34.1137H22.179V21.886H25.4961V25.7234C25.4961 26.0811 25.7887 26.3738 26.1465 26.3738H29.8538C30.2115 26.3738 30.5042 26.0811 30.5042 25.7234V21.886H33.8538V34.1137Z" fill="white"/>
</svg>
