<svg width="56" height="56" viewBox="0 0 56 56" fill="none" xmlns="http://www.w3.org/2000/svg">
<path fill-rule="evenodd" clip-rule="evenodd" d="M0 48.697L2.48662e-05 0L46.4799 4.66758e-06L55.7839 7.08689V55.7839L9.30401 55.7839L0 48.697ZM1.46228 47.5643L1.4623 1.51868L45.4284 1.51868L54.2293 8.21971V54.2653L10.2631 54.2653L1.46228 47.5643Z" fill="white"/>
<g clip-path="url(#clip0)">
<path d="M14.7034 14.663V24.0419C14.7034 30.0053 17.1225 35.4062 21.0287 39.3152C23.0227 41.3065 25.3994 42.904 28.0364 43.9999C30.6722 42.904 33.0492 41.3065 35.0444 39.3152C38.9509 35.4065 41.3697 30.0059 41.3697 24.0419V14.663C32.4788 10.9774 22.9431 11.2499 14.7034 14.663ZM38.7031 24.0419C38.7031 29.0965 36.7345 33.8514 33.1578 37.4295C31.6564 38.9298 29.9361 40.1541 28.0364 41.077C26.1358 40.1535 24.4161 38.9298 22.9128 37.4286C19.339 33.8517 17.3703 29.0965 17.3703 24.0419V16.4958C20.8132 15.2809 24.3984 14.6666 28.0523 14.6666C31.6902 14.6666 35.2641 15.2809 38.7031 16.4955V24.0419Z" fill="white"/>
<path d="M33.108 22.1469L35.1069 20.148L33.2212 18.2629L31.2229 20.2615C29.279 19.0387 26.7946 19.0387 24.8506 20.2615L22.8517 18.2635L20.9658 20.1492L22.964 22.1481C21.7412 24.0921 21.7412 26.5765 22.9637 28.5204L20.9648 30.519L22.8508 32.4059L24.8506 30.4061C26.794 31.6286 29.2784 31.6286 31.2211 30.4061L33.2212 32.4059L35.1069 30.5181L33.108 28.5198C34.332 26.5753 34.332 24.0908 33.108 22.1469ZM28.0363 28.666C26.1952 28.6669 24.7026 27.1743 24.7032 25.3332C24.7032 23.4921 26.1952 22.0001 28.0363 22.0004C29.8777 22.0001 31.3697 23.4921 31.3697 25.3332C31.3697 27.1749 29.8777 28.6669 28.0363 28.666Z" fill="white"/>
</g>
<defs>
<clipPath id="clip0">
<rect width="32" height="32" fill="white" transform="translate(12 12)"/>
</clipPath>
</defs>
</svg>
