<svg width="56" height="56" viewBox="0 0 56 56" fill="none" xmlns="http://www.w3.org/2000/svg">
<path fill-rule="evenodd" clip-rule="evenodd" d="M0 48.697L2.48662e-05 0L46.4799 4.66758e-06L55.7839 7.08689V55.7839L9.30401 55.7839L0 48.697ZM1.46228 47.5643L1.4623 1.51868L45.4284 1.51868L54.2293 8.21971V54.2653L10.2631 54.2653L1.46228 47.5643Z" fill="white"/>
<path d="M35.4666 38.1332V32.2665C35.4666 31.3599 34.7733 30.6666 33.8666 30.6666H33.6C33.3333 30.6666 33.12 30.5066 33.0666 30.2933L31.2 23.7866V23.7333C30.7733 22.7733 29.8133 22.1333 28.7466 22.1333H18.72C17.6533 22.1333 16.6933 22.7733 16.2666 23.7333V23.7866L14.4 30.2933C14.2933 30.5066 14.08 30.6666 13.8667 30.6666H13.6C12.6933 30.6666 12 31.3599 12 32.2665V38.1332C12 39.0399 12.6933 39.7332 13.6 39.7332V42.3998C13.6 43.3065 14.2933 43.9998 15.2 43.9998H16.2666C17.1733 43.9998 17.8666 43.3065 17.8666 42.3998V39.7332H29.5999V42.3998C29.5999 43.3065 30.2932 43.9998 31.1999 43.9998H32.2666C33.1733 43.9998 33.8666 43.3065 33.8666 42.3998V39.7332C34.7733 39.7332 35.4666 39.0399 35.4666 38.1332ZM16.8 42.3998C16.8 42.7198 16.5867 42.9331 16.2667 42.9331H15.2C14.88 42.9331 14.6667 42.7198 14.6667 42.3998V39.7332H16.8001V42.3998H16.8ZM32.8 42.3998C32.8 42.7198 32.5867 42.9331 32.2667 42.9331H31.2C30.88 42.9331 30.6667 42.7198 30.6667 42.3998V39.7332H32.8V42.3998H32.8ZM34.4 38.1332C34.4 38.4532 34.1867 38.6665 33.8667 38.6665H33.3334H30.1334H17.3333H14.1333H13.6C13.28 38.6665 13.0667 38.4532 13.0667 38.1332V32.2665C13.0667 31.9465 13.28 31.7332 13.6 31.7332H13.8667C14.56 31.7332 15.2 31.2532 15.4133 30.5599L17.28 24.1065C17.5467 23.5732 18.08 23.1998 18.72 23.1998H28.7466C29.3333 23.1998 29.92 23.5198 30.1866 24.1065L32.0533 30.5599C32.2666 31.2532 32.9066 31.7332 33.6 31.7332H33.8666C34.1866 31.7332 34.3999 31.9465 34.3999 32.2665V38.1332H34.4Z" fill="white"/>
<path d="M16.7999 32.8C15.6265 32.8 14.6665 33.76 14.6665 34.9334C14.6665 36.1068 15.6265 37.0667 16.7999 37.0667C17.9732 37.0667 18.9332 36.1068 18.9332 34.9334C18.9332 33.76 17.9732 32.8 16.7999 32.8ZM16.7999 36.0001C16.2132 36.0001 15.7332 35.5201 15.7332 34.9334C15.7332 34.3467 16.2132 33.8667 16.7999 33.8667C17.3865 33.8667 17.8665 34.3467 17.8665 34.9334C17.8665 35.5201 17.3865 36.0001 16.7999 36.0001Z" fill="white"/>
<path d="M30.6665 32.8C29.4932 32.8 28.5332 33.76 28.5332 34.9334C28.5332 36.1068 29.4932 37.0667 30.6665 37.0667C31.8399 37.0667 32.7999 36.1068 32.7999 34.9334C32.7999 33.76 31.8398 32.8 30.6665 32.8ZM30.6665 36.0001C30.0799 36.0001 29.5999 35.5201 29.5999 34.9334C29.5999 34.3467 30.0799 33.8667 30.6665 33.8667C31.2532 33.8667 31.7332 34.3467 31.7332 34.9334C31.7332 35.5201 31.2532 36.0001 30.6665 36.0001Z" fill="white"/>
<path d="M24.8 35.4666H22.6666C22.3466 35.4666 22.1333 35.6799 22.1333 35.9999C22.1333 36.3199 22.3466 36.5332 22.6666 36.5332H24.8C25.1199 36.5332 25.3333 36.3199 25.3333 35.9999C25.3333 35.6799 25.1199 35.4666 24.8 35.4666Z" fill="white"/>
<path d="M25.8666 33.3333H21.6C21.28 33.3333 21.0667 33.5466 21.0667 33.8666C21.0667 34.1866 21.28 34.3999 21.6 34.3999H25.8666C26.1866 34.3999 26.4 34.1866 26.4 33.8666C26.4 33.5466 26.1867 33.3333 25.8666 33.3333Z" fill="white"/>
<path d="M18.6133 30.6667H28.9066C29.2266 30.6667 29.5466 30.5067 29.76 30.24C29.9734 29.9733 30.0267 29.6 29.92 29.28L28.64 25.0133C28.5333 24.5866 28.1066 24.2666 27.6266 24.2666H19.8933C19.4133 24.2666 19.04 24.5333 18.88 25.0133L17.6 29.28C17.4933 29.6 17.5467 29.9733 17.76 30.24C17.9733 30.5066 18.2933 30.6667 18.6133 30.6667ZM19.8933 25.3333H27.6267L28.9066 29.6H18.6133L19.8933 25.3333Z" fill="white"/>
<path d="M43.4666 12H34.4C34.08 12 33.8667 12.2133 33.8667 12.5333V21.6C33.8667 21.92 34.08 22.1333 34.4 22.1333H38.1333V38.6666H37.0666C36.7467 38.6666 36.5333 38.8799 36.5333 39.1999V40.7999H35.4667C35.1467 40.7999 34.9334 41.0132 34.9334 41.3332V43.4666C34.9334 43.7866 35.1467 43.9999 35.4667 43.9999H41.8666C42.1866 43.9999 42.3999 43.7866 42.3999 43.4666V41.3332C42.3999 41.0132 42.1866 40.7999 41.8666 40.7999H40.8V39.1999C40.8 38.8799 40.5867 38.6666 40.2667 38.6666H39.2V22.1333H43.4667C43.7867 22.1333 44 21.92 44 21.6V12.5333C44 12.2133 43.7866 12 43.4666 12ZM41.3333 42.9333H36V41.8667H37.0666H40.2667H41.3333V42.9333H41.3333ZM39.7333 40.8H37.6V39.7333H39.7333V40.8ZM42.9333 21.0667H34.9333V13.0667H42.9333V21.0667Z" fill="white"/>
<path d="M38.1332 20C38.4532 20 38.6665 19.7867 38.6665 19.4667V18.4H39.1998C40.3732 18.4 41.3332 17.44 41.3332 16.2666C41.3332 15.0933 40.3732 14.1333 39.1998 14.1333H38.1332C37.8132 14.1333 37.5999 14.3466 37.5999 14.6666V17.8666V19.4666C37.5999 19.7867 37.8132 20 38.1332 20ZM40.2665 16.2667C40.2665 16.8534 39.7865 17.3334 39.1998 17.3334H38.6665V15.2H39.1998C39.7865 15.2 40.2665 15.68 40.2665 16.2667Z" fill="white"/>
</svg>
