<svg width="56" height="56" viewBox="0 0 56 56" fill="none" xmlns="http://www.w3.org/2000/svg">
<path fill-rule="evenodd" clip-rule="evenodd" d="M0 48.697L2.48662e-05 0L46.4799 4.66758e-06L55.7839 7.08689V55.7839L9.30401 55.7839L0 48.697ZM1.46228 47.5643L1.4623 1.51868L45.4284 1.51868L54.2293 8.21971V54.2653L10.2631 54.2653L1.46228 47.5643Z" fill="white"/>
<path d="M41.3333 38.6667H40.6666V32.6667V30C40.6666 29.7624 40.5403 29.5423 40.3346 29.4232L30.3247 23.6276L29.7108 21.7305C29.3763 20.6953 28.4206 20 27.3333 20C26.6109 20 25.9653 20.3267 25.5027 20.8364L23.3333 19.5804V12.6667C23.3333 12.2982 23.0352 12 22.6667 12H20C19.8229 12 19.6536 12.0703 19.5286 12.1953L15.8841 15.8399L14.1953 17.5286C14.0693 17.6541 14.0146 17.8252 14.0138 18H14V28.6667C14 28.8438 14.0703 29.0131 14.1953 29.1381L15.3333 30.2761V43.3334C15.3333 43.7018 15.6315 44 16 44C16.3685 44 16.6667 43.7018 16.6667 43.3333V30.2142L21.8637 22.9374L24.139 24.2548L18.0326 43.1283C17.9661 43.3307 18.0026 43.5534 18.1276 43.7253C18.2526 43.8978 18.4531 44 18.6667 44H20.6667C20.9388 44 21.1849 43.834 21.2852 43.5807L22.7177 40H31.9489L33.3815 43.5807C33.4818 43.834 33.7279 44 34 44H36C36.2136 44 36.4141 43.8978 36.5391 43.7253C36.6641 43.5534 36.7005 43.3307 36.6341 43.1283L32.0001 28.8055L39.3333 33.0513V38.6666H38.6666C38.2981 38.6666 37.9999 38.9648 37.9999 39.3333V43.3333C37.9999 43.7018 38.2981 44 38.6666 44H41.3333C41.7018 44 42 43.7018 42 43.3333V39.3333C42 38.9649 41.7018 38.6667 41.3333 38.6667ZM22 13.3333V16.1976L20.9534 13.3333H22ZM19.7324 13.8769L21.4094 18.4666L17.4405 16.1689L19.7324 13.8769ZM15.9154 28.972L15.3333 28.3906V24H19.4658L15.9154 28.972ZM20.418 22.6667H15.3333V19.1566L20.704 22.2661L20.418 22.6667ZM15.7513 17.8581L16.4649 17.1445L24.8658 22.0087L24.5589 22.9567L15.7513 17.8581ZM23.2511 38.6667L24.495 35.5578L26.2051 38.6667H23.2511ZM25.5274 34.6667H29.1394L27.3334 37.9499L25.5274 34.6667ZM25.3849 33.3333L26.4518 30.6666H28.2148L29.2817 33.3333H25.3849ZM28.4616 38.6667L30.1716 35.5578L31.4155 38.6667H28.4616ZM35.0833 42.6667H34.4518L29.2851 29.7526C29.1849 29.4994 28.9387 29.3334 28.6666 29.3334H26C25.7279 29.3334 25.4818 29.4994 25.3815 29.7526L20.2148 42.6667H19.5833L26.2239 22.1406C26.3802 21.6576 26.8255 21.3333 27.3333 21.3333C27.8411 21.3333 28.2864 21.6576 28.4427 22.1406L35.0833 42.6667ZM31.3865 26.9092L30.9383 25.5239L39.3333 30.3841V31.5104L31.3865 26.9092ZM40.6667 42.6667H39.3334V40H40.6667V42.6667Z" fill="white"/>
</svg>
